<?xml version="1.0" encoding="UTF-8" standalone="no"?>
<svg
   xmlns:sketch="http://www.bohemiancoding.com/sketch/ns"
   xmlns:dc="http://purl.org/dc/elements/1.1/"
   xmlns:cc="http://creativecommons.org/ns#"
   xmlns:rdf="http://www.w3.org/1999/02/22-rdf-syntax-ns#"
   xmlns:svg="http://www.w3.org/2000/svg"
   xmlns="http://www.w3.org/2000/svg"
   xml:space="preserve"
   enable-background="new 1258 312 234 74"
   viewBox="1258 312 231.45599 58.702499"
   height="58.702499"
   width="231.45599"
   y="0px"
   x="0px"
   id="Layer_1"
   version="1.1"><metadata
   id="metadata67"><rdf:RDF><cc:Work
       rdf:about=""><dc:format>image/svg+xml</dc:format><dc:type
         rdf:resource="http://purl.org/dc/dcmitype/StillImage" /></cc:Work></rdf:RDF></metadata><defs
   id="defs65" />
<title
   id="title2">Logo_gradient</title>
<desc
   id="desc4">Created with Sketch.</desc>
<g
   transform="translate(-1.2730136,-7.6484539)"
   sketch:type="MSPage"
   id="Page-1">
	<g
   sketch:type="MSLayerGroup"
   transform="translate(-2,0.735955)"
   id="Logo_gradient">
		
			<linearGradient
   gradientTransform="matrix(655.231,0,0,-697.0886,-311890.81,661415.81)"
   y2="948.28448"
   x2="477.96829"
   y1="948.36761"
   x1="477.96829"
   gradientUnits="userSpaceOnUse"
   id="Fill-1_1_">
			<stop
   id="stop6"
   style="stop-color:#EB356C"
   offset="0" />
			<stop
   id="stop8"
   style="stop-color:#EE5C45"
   offset="1" />
		</linearGradient>
		<path
   style="fill:url(#Fill-1_1_)"
   d="m 1313.854,335.986 c -1.488,-0.986 -16.962,-9.298 -28.471,-15.464 -1.097,-0.587 -1.826,-0.978 -2.044,-1.096 -1.271,-0.686 -2.63,-0.684 -3.932,0.002 -0.132,0.068 -13.506,7.171 -15.536,8.517 -1.735,1.147 -2.632,2.899 -2.597,5.065 0.02,1.276 0.017,5.501 0.016,8.024 v 0.208 c -10e-4,0.82 -10e-4,1.42 -10e-4,1.609 v 0.038 c 0,0.854 0.01,3.759 -0.015,5.293 -0.037,2.2 0.97,4.003 2.832,5.084 1.912,1.108 3.85,2.2 5.358,3.048 v 13.251 l 12.196,-6.777 c 3.807,2.146 21.401,11.929 24.934,13.894 l 1.667,0.933 v -13.258 c 1.607,-0.903 3.485,-1.962 5.357,-3.048 1.865,-1.078 2.87,-2.884 2.833,-5.085 -0.023,-1.451 -0.015,-5.065 -0.012,-6.803 l 10e-4,-0.828 -10e-4,-0.825 c 0,-1.719 -0.012,-5.294 0.012,-6.717 0.035,-2.164 -0.863,-3.917 -2.597,-5.065 z m -37.622,5.388 c 0.072,4.951 0.046,9.845 0.01,14.843 -0.01,1.462 0.43,2.765 1.278,3.785 l -3.576,1.983 v -8.229 l -0.583,-0.329 c -2.346,-1.31 -4.679,-2.622 -6.936,-3.903 -0.536,-0.304 -0.774,-0.746 -0.77,-1.433 0.028,-4.741 0.057,-9.645 -0.013,-14.632 -0.015,-1.112 0.379,-1.792 1.361,-2.345 0.565,-0.317 13.281,-7.194 14.027,-7.584 0.144,-0.075 0.264,-0.113 0.356,-0.113 0.081,0 0.169,0.027 0.283,0.088 0.78,0.424 2.676,1.45 4.749,2.569 l 0.522,0.282 c 1.681,0.909 3.425,1.852 4.74,2.565 -2.806,1.508 -9.439,5.077 -12.193,6.602 -2.165,1.205 -3.292,3.227 -3.255,5.851 z m 4.907,16.014 c -0.355,-0.29 -0.522,-0.711 -0.513,-1.281 0.034,-1.932 0.045,-12.979 -0.01,-14.666 -0.033,-1.049 0.314,-1.695 1.163,-2.16 2.135,-1.17 7.531,-4.087 11.102,-6.017 1.306,-0.707 2.33,-1.26 2.758,-1.493 0.131,-0.063 0.27,-0.095 0.415,-0.095 0.341,0 0.657,0.184 0.825,0.472 0.169,0.338 0.244,0.748 0.227,1.251 -0.053,1.688 -0.042,12.733 -0.01,14.664 0.012,0.679 -0.229,1.149 -0.739,1.438 -2.923,1.66 -5.996,3.386 -9.134,5.13 l -5.131,2.836 c -0.304,0.144 -0.71,0.099 -0.956,-0.079 z m 30.929,-1.287 10e-4,0.032 c 0,0.687 -0.235,1.128 -0.772,1.433 -2.169,1.233 -4.502,2.545 -6.934,3.903 l -0.582,0.326 v 8.231 c -2.409,-1.337 -13.231,-7.34 -17.566,-9.752 l 0.131,-0.073 c 2.893,-1.619 9.669,-5.408 12.245,-6.897 1.908,-1.102 2.907,-2.876 2.892,-5.129 -0.018,-2.447 -0.018,-6.277 -0.019,-9.354 0,-2.255 -10e-4,-3.766 0,-4.767 2.881,1.574 8.817,4.854 9.261,5.104 0.982,0.552 1.377,1.232 1.362,2.345 -0.07,4.941 -0.041,9.85 -0.014,14.598 z"
   sketch:type="MSShapeGroup"
   id="Fill-1" />
		
			<linearGradient
   gradientTransform="matrix(287.4314,0,0,-427.8585,-135448.86,406065.72)"
   y2="948.21912"
   x2="475.90869"
   y1="948.3031"
   x1="475.90869"
   gradientUnits="userSpaceOnUse"
   id="Fill-2_1_">
			<stop
   id="stop12"
   style="stop-color:#EB356C"
   offset="0" />
			<stop
   id="stop14"
   style="stop-color:#EE5C45"
   offset="1" />
		</linearGradient>
		<path
   style="fill:url(#Fill-2_1_)"
   d="m 1351.266,341.8 c -0.967,-1.061 -2.124,-1.895 -3.465,-2.502 -1.342,-0.609 -2.808,-0.913 -4.401,-0.913 -1.03,0 -1.952,0.117 -2.763,0.35 -0.812,0.234 -1.52,0.523 -2.129,0.866 -0.609,0.344 -1.132,0.719 -1.569,1.123 -0.437,0.406 -0.794,0.797 -1.076,1.171 h -0.141 v -15.77 h -5.618 v 35.376 h 5.337 v -3.369 h 0.094 c 0.78,1.31 1.864,2.308 3.254,2.994 1.388,0.686 2.878,1.029 4.471,1.029 1.716,0 3.253,-0.32 4.612,-0.959 1.358,-0.639 2.511,-1.497 3.465,-2.573 0.951,-1.077 1.686,-2.34 2.2,-3.79 0.515,-1.452 0.772,-3.002 0.772,-4.656 0,-1.653 -0.266,-3.198 -0.796,-4.633 -0.531,-1.435 -1.28,-2.682 -2.247,-3.744 z m -3.067,10.998 c -0.266,0.873 -0.664,1.651 -1.194,2.338 -0.53,0.688 -1.201,1.248 -2.012,1.686 -0.812,0.438 -1.765,0.654 -2.857,0.654 -1.03,0 -1.952,-0.211 -2.762,-0.631 -0.812,-0.423 -1.506,-0.976 -2.083,-1.662 -0.578,-0.687 -1.016,-1.458 -1.311,-2.315 -0.297,-0.858 -0.444,-1.723 -0.444,-2.598 0,-0.873 0.147,-1.746 0.444,-2.621 0.295,-0.873 0.733,-1.652 1.311,-2.339 0.577,-0.687 1.271,-1.247 2.083,-1.685 0.811,-0.437 1.732,-0.655 2.762,-0.655 1.092,0 2.044,0.211 2.857,0.633 0.811,0.421 1.482,0.975 2.012,1.661 0.53,0.687 0.929,1.458 1.194,2.315 0.265,0.859 0.398,1.725 0.398,2.598 0,0.873 -0.133,1.746 -0.398,2.621 z"
   sketch:type="MSShapeGroup"
   id="Fill-2" />
		
			<linearGradient
   gradientTransform="matrix(159.0078,0,0,-274.4995,-73815.359,260709.97)"
   y2="948.44861"
   x2="472.79639"
   y1="948.53259"
   x1="472.79639"
   gradientUnits="userSpaceOnUse"
   id="Fill-3_1_">
			<stop
   id="stop18"
   style="stop-color:#EB356C"
   offset="0" />
			<stop
   id="stop20"
   style="stop-color:#EE5C45"
   offset="1" />
		</linearGradient>
		<path
   style="fill:url(#Fill-3_1_)"
   d="m 1368.348,338.385 c -1.498,0 -2.809,0.405 -3.933,1.217 -1.124,0.812 -1.998,1.872 -2.622,3.182 h -0.094 v -3.744 h -5.384 v 22.461 h 5.618 v -12.027 c 0,-0.405 0.077,-0.95 0.234,-1.637 0.156,-0.686 0.452,-1.357 0.889,-2.013 0.438,-0.655 1.045,-1.217 1.827,-1.685 0.779,-0.468 1.81,-0.702 3.09,-0.702 0.25,0 0.506,0.016 0.772,0.047 0.265,0.031 0.585,0.092 0.959,0.187 v -5.147 c -0.187,-0.062 -0.405,-0.101 -0.655,-0.117 -0.25,-0.014 -0.482,-0.022 -0.701,-0.022"
   sketch:type="MSShapeGroup"
   id="Fill-3" />
		
			<linearGradient
   gradientTransform="matrix(66.7166,0,0,-266.7221,-29557.56,253338.86)"
   y2="948.46808"
   x2="463.6416"
   y1="948.5531"
   x1="463.6416"
   gradientUnits="userSpaceOnUse"
   id="Fill-4_1_">
			<stop
   id="stop24"
   style="stop-color:#EB356C"
   offset="0" />
			<stop
   id="stop26"
   style="stop-color:#EE5C45"
   offset="1" />
		</linearGradient>
		<path
   style="fill:url(#Fill-4_1_)"
   d="m 1372.209,339.04 h 5.618 v 22.461 h -5.618 z"
   sketch:type="MSShapeGroup"
   id="Fill-4" />
		
			<linearGradient
   gradientTransform="matrix(85.6194,0,0,-80.0137,-38593.133,76066.062)"
   y2="946.47888"
   x2="466.81201"
   y1="946.56378"
   x1="466.81201"
   gradientUnits="userSpaceOnUse"
   id="Fill-5_1_">
			<stop
   id="stop30"
   style="stop-color:#EB356C"
   offset="0" />
			<stop
   id="stop32"
   style="stop-color:#EE5C45"
   offset="1" />
		</linearGradient>
		<path
   style="fill:url(#Fill-5_1_)"
   d="m 1374.972,328.043 c -1.029,0 -1.88,0.335 -2.552,1.006 -0.671,0.671 -1.007,1.458 -1.007,2.363 0,0.905 0.335,1.692 1.007,2.362 0.672,0.672 1.522,1.006 2.552,1.006 1.031,0 1.897,-0.319 2.599,-0.958 0.702,-0.64 1.054,-1.443 1.054,-2.41 0,-0.968 -0.352,-1.771 -1.054,-2.411 -0.702,-0.638 -1.569,-0.958 -2.599,-0.958"
   sketch:type="MSShapeGroup"
   id="Fill-5" />
		
			<linearGradient
   gradientTransform="matrix(287.4314,0,0,-427.8585,-134854.11,406065.72)"
   y2="948.21912"
   x2="474.0137"
   y1="948.3031"
   x1="474.0137"
   gradientUnits="userSpaceOnUse"
   id="Fill-6_1_">
			<stop
   id="stop36"
   style="stop-color:#EB356C"
   offset="0" />
			<stop
   id="stop38"
   style="stop-color:#EE5C45"
   offset="1" />
		</linearGradient>
		<path
   style="fill:url(#Fill-6_1_)"
   d="m 1398.778,341.894 h -0.143 c -0.278,-0.374 -0.639,-0.765 -1.076,-1.171 -0.436,-0.404 -0.959,-0.778 -1.567,-1.123 -0.609,-0.342 -1.318,-0.632 -2.131,-0.866 -0.812,-0.233 -1.731,-0.35 -2.763,-0.35 -1.592,0 -3.059,0.303 -4.4,0.913 -1.343,0.607 -2.497,1.442 -3.464,2.502 -0.969,1.062 -1.718,2.309 -2.248,3.744 -0.531,1.436 -0.796,2.98 -0.796,4.633 0,1.654 0.258,3.204 0.772,4.656 0.516,1.45 1.248,2.713 2.2,3.79 0.952,1.076 2.107,1.935 3.466,2.573 1.357,0.639 2.895,0.959 4.611,0.959 1.591,0 3.082,-0.344 4.472,-1.029 1.388,-0.687 2.472,-1.685 3.253,-2.994 h 0.094 v 3.369 h 5.337 v -35.376 h -5.617 z m -0.258,10.974 c -0.297,0.857 -0.732,1.629 -1.311,2.315 -0.577,0.687 -1.271,1.239 -2.083,1.662 -0.812,0.42 -1.733,0.631 -2.762,0.631 -1.094,0 -2.045,-0.217 -2.857,-0.654 -0.812,-0.437 -1.481,-0.998 -2.013,-1.686 -0.531,-0.687 -0.93,-1.465 -1.194,-2.338 -0.265,-0.875 -0.397,-1.748 -0.397,-2.621 0,-0.873 0.133,-1.739 0.397,-2.598 0.265,-0.857 0.663,-1.629 1.194,-2.315 0.531,-0.686 1.2,-1.24 2.013,-1.661 0.812,-0.421 1.764,-0.633 2.857,-0.633 1.028,0 1.949,0.219 2.762,0.655 0.812,0.438 1.506,0.998 2.083,1.685 0.578,0.688 1.014,1.467 1.311,2.339 0.297,0.875 0.445,1.748 0.445,2.621 0,0.875 -0.149,1.739 -0.445,2.598 z"
   sketch:type="MSShapeGroup"
   id="Fill-6" />
		
			<linearGradient
   gradientTransform="matrix(286.8785,0,0,-407.8569,-134278.63,387234.69)"
   y2="948.5238"
   x2="473.01321"
   y1="948.60883"
   x1="473.01321"
   gradientUnits="userSpaceOnUse"
   id="Fill-7_1_">
			<stop
   id="stop42"
   style="stop-color:#EB356C"
   offset="0" />
			<stop
   id="stop44"
   style="stop-color:#EE5C45"
   offset="1" />
		</linearGradient>
		<path
   style="fill:url(#Fill-7_1_)"
   d="m 1425.249,342.409 h -0.095 c -0.811,-1.373 -1.904,-2.386 -3.277,-3.042 -1.373,-0.655 -2.855,-0.982 -4.447,-0.982 -1.685,0 -3.207,0.312 -4.564,0.935 -1.357,0.625 -2.513,1.467 -3.465,2.527 -0.952,1.061 -1.685,2.309 -2.2,3.744 -0.515,1.436 -0.772,2.964 -0.772,4.586 0,1.59 0.265,3.096 0.796,4.516 0.53,1.42 1.271,2.659 2.224,3.721 0.952,1.059 2.114,1.902 3.487,2.526 1.373,0.623 2.904,0.937 4.588,0.937 1.562,0 2.975,-0.292 4.238,-0.877 1.265,-0.581 2.302,-1.425 3.112,-2.529 h 0.095 v 1.646 c 0,1.125 -0.116,2.159 -0.352,3.099 -0.233,0.938 -0.625,1.754 -1.17,2.442 -0.546,0.688 -1.279,1.229 -2.201,1.619 -0.92,0.393 -2.053,0.588 -3.394,0.588 -1.405,0 -2.794,-0.273 -4.167,-0.817 -1.374,-0.547 -2.607,-1.334 -3.699,-2.366 l -3.23,4.354 c 0.718,0.593 1.528,1.122 2.436,1.592 0.905,0.468 1.849,0.856 2.832,1.169 0.983,0.312 1.981,0.545 2.997,0.701 1.013,0.157 1.974,0.233 2.879,0.233 2.185,0 4.073,-0.31 5.665,-0.935 1.591,-0.624 2.91,-1.506 3.955,-2.645 1.047,-1.139 1.819,-2.525 2.318,-4.164 0.5,-1.637 0.75,-3.471 0.75,-5.497 v -20.45 h -5.338 v 3.369 z m -0.469,10.378 c -0.312,0.855 -0.756,1.61 -1.334,2.263 -0.577,0.654 -1.279,1.175 -2.107,1.563 -0.827,0.389 -1.756,0.583 -2.785,0.583 -1,0 -1.896,-0.204 -2.691,-0.606 -0.797,-0.405 -1.469,-0.941 -2.014,-1.61 -0.547,-0.668 -0.969,-1.422 -1.265,-2.261 -0.297,-0.841 -0.444,-1.709 -0.444,-2.612 0,-0.995 0.147,-1.927 0.444,-2.798 0.296,-0.871 0.718,-1.625 1.265,-2.263 0.545,-0.637 1.217,-1.143 2.014,-1.515 0.796,-0.373 1.709,-0.56 2.739,-0.56 1.028,0 1.948,0.187 2.762,0.56 0.811,0.373 1.506,0.886 2.083,1.539 0.578,0.653 1.022,1.414 1.334,2.285 0.312,0.871 0.469,1.789 0.469,2.752 -10e-4,0.933 -0.158,1.827 -0.47,2.68 z"
   sketch:type="MSShapeGroup"
   id="Fill-7" />
		
			<linearGradient
   gradientTransform="matrix(270.2021,0,0,-282.2769,-126004.15,268088.88)"
   y2="948.45453"
   x2="471.67719"
   y1="948.53851"
   x1="471.67719"
   gradientUnits="userSpaceOnUse"
   id="Fill-8_1_">
			<stop
   id="stop48"
   style="stop-color:#EB356C"
   offset="0" />
			<stop
   id="stop50"
   style="stop-color:#EE5C45"
   offset="1" />
		</linearGradient>
		<path
   style="fill:url(#Fill-8_1_)"
   d="m 1452.319,341.45 c -0.968,-1.013 -2.115,-1.778 -3.441,-2.292 -1.328,-0.515 -2.771,-0.772 -4.332,-0.772 -1.685,0 -3.253,0.288 -4.704,0.865 -1.452,0.578 -2.709,1.389 -3.769,2.433 -1.062,1.045 -1.897,2.309 -2.506,3.79 -0.609,1.482 -0.913,3.128 -0.913,4.938 0,1.84 0.304,3.484 0.913,4.937 0.608,1.45 1.451,2.675 2.528,3.672 1.076,0.999 2.349,1.771 3.816,2.316 1.466,0.546 3.073,0.819 4.82,0.819 4.215,0 7.43,-1.497 9.646,-4.491 l -3.746,-2.996 c -0.624,0.904 -1.421,1.615 -2.388,2.13 -0.969,0.515 -2.153,0.772 -3.558,0.772 -0.812,0 -1.592,-0.143 -2.341,-0.421 -0.75,-0.281 -1.422,-0.663 -2.013,-1.147 -0.595,-0.482 -1.07,-1.06 -1.43,-1.73 -0.358,-0.671 -0.569,-1.412 -0.632,-2.224 h 17.089 c 0.031,-0.249 0.048,-0.498 0.048,-0.749 v -0.749 c 0,-2.026 -0.274,-3.797 -0.819,-5.31 -0.545,-1.514 -1.302,-2.777 -2.268,-3.791 z m -14.047,6.574 c 0.125,-1.59 0.773,-2.892 1.944,-3.908 1.17,-1.012 2.597,-1.52 4.282,-1.52 0.905,0 1.693,0.148 2.365,0.445 0.671,0.297 1.225,0.695 1.661,1.192 0.437,0.5 0.756,1.077 0.961,1.732 0.202,0.655 0.304,1.341 0.304,2.059 z"
   sketch:type="MSShapeGroup"
   id="Fill-8" />
		
			<linearGradient
   gradientTransform="matrix(440.8694,0,0,-560.1105,-207225.38,531535)"
   y2="948.3158"
   x2="473.38129"
   y1="948.40082"
   x1="473.38129"
   gradientUnits="userSpaceOnUse"
   id="Fill-9_1_">
			<stop
   id="stop54"
   style="stop-color:#EB356C"
   offset="0" />
			<stop
   id="stop56"
   style="stop-color:#EE5C45"
   offset="1" />
		</linearGradient>
		<path
   style="fill:url(#Fill-9_1_)"
   d="m 1486.875,339.04 -5.572,16.332 h -0.094 l -6.274,-16.332 h -9.456 v -3.65 c 0,-0.562 0.046,-1.139 0.141,-1.732 0.093,-0.592 0.272,-1.138 0.538,-1.638 0.266,-0.498 0.648,-0.905 1.148,-1.217 0.499,-0.311 1.154,-0.468 1.965,-0.468 0.405,0 0.788,0.031 1.148,0.093 0.357,0.063 0.693,0.141 1.007,0.234 l 0.373,-4.773 c -0.437,-0.124 -0.865,-0.21 -1.286,-0.257 -0.423,-0.046 -0.944,-0.069 -1.569,-0.069 -1.749,0 -3.2,0.272 -4.354,0.818 -1.154,0.546 -2.083,1.288 -2.785,2.224 -0.703,0.935 -1.203,2.02 -1.498,3.251 -0.296,1.233 -0.445,2.52 -0.445,3.86 v 3.323 h -4.26 v 4.492 h 4.26 V 361.5 h 5.618 v -17.969 h 5.16 l 7.715,17.969 -1.124,2.854 c -0.25,0.592 -0.484,1.106 -0.702,1.544 -0.22,0.436 -0.468,0.802 -0.748,1.101 -0.281,0.296 -0.627,0.515 -1.031,0.653 -0.406,0.142 -0.906,0.211 -1.498,0.211 -0.312,0 -0.648,-0.024 -1.007,-0.069 -0.359,-0.046 -0.725,-0.132 -1.1,-0.257 l -0.469,4.866 c 0.5,0.124 0.99,0.21 1.475,0.257 0.484,0.048 0.96,0.068 1.429,0.068 1.248,0 2.317,-0.139 3.206,-0.42 0.891,-0.281 1.662,-0.694 2.317,-1.239 0.656,-0.548 1.218,-1.217 1.686,-2.012 0.469,-0.796 0.905,-1.709 1.312,-2.739 l 10.628,-27.28 h -5.854"
   sketch:type="MSShapeGroup"
   id="Fill-9" />
	</g>
</g>
</svg>