<?xml version="1.0" encoding="UTF-8" standalone="no"?>
<!-- Created with Inkscape (http://www.inkscape.org/) -->

<svg
   xmlns:dc="http://purl.org/dc/elements/1.1/"
   xmlns:cc="http://creativecommons.org/ns#"
   xmlns:rdf="http://www.w3.org/1999/02/22-rdf-syntax-ns#"
   xmlns:svg="http://www.w3.org/2000/svg"
   xmlns="http://www.w3.org/2000/svg"
   xmlns:sodipodi="http://sodipodi.sourceforge.net/DTD/sodipodi-0.dtd"
   xmlns:inkscape="http://www.inkscape.org/namespaces/inkscape"
   width="250.2"
   height="214.03589"
   viewBox="0 0 66.198748 56.63033"
   version="1.1"
   id="svg8"
   inkscape:version="0.92.3 (2405546, 2018-03-11)"
   sodipodi:docname="GoogleFit logo 2018.svg">
  <title
     id="title949">GoogleFit logo 2018</title>
  <defs
     id="defs2" />
  <sodipodi:namedview
     id="base"
     pagecolor="#ffffff"
     bordercolor="#666666"
     borderopacity="1.0"
     inkscape:pageopacity="0.0"
     inkscape:pageshadow="2"
     inkscape:zoom="0.70710678"
     inkscape:cx="-46.482239"
     inkscape:cy="38.454234"
     inkscape:document-units="mm"
     inkscape:current-layer="layer1"
     showgrid="false"
     showguides="true"
     inkscape:guide-bbox="true"
     inkscape:snap-object-midpoints="true"
     inkscape:object-paths="false"
     units="px"
     fit-margin-right="0.1"
     fit-margin-left="0.1"
     fit-margin-top="0.1"
     fit-margin-bottom="0.1"
     inkscape:window-width="1366"
     inkscape:window-height="705"
     inkscape:window-x="-8"
     inkscape:window-y="-8"
     inkscape:window-maximized="1" />
  <metadata
     id="metadata5">
    <rdf:RDF>
      <cc:Work
         rdf:about="">
        <dc:format>image/svg+xml</dc:format>
        <dc:type
           rdf:resource="http://purl.org/dc/dcmitype/StillImage" />
        <dc:title>GoogleFit logo 2018</dc:title>
        <cc:license
           rdf:resource="http://creativecommons.org/licenses/by-sa/4.0/" />
        <dc:date>22/10/2018</dc:date>
        <dc:creator>
          <cc:Agent>
            <dc:title>Google Inc.</dc:title>
          </cc:Agent>
        </dc:creator>
        <dc:publisher>
          <cc:Agent>
            <dc:title>CMetalCore</dc:title>
          </cc:Agent>
        </dc:publisher>
      </cc:Work>
      <cc:License
         rdf:about="http://creativecommons.org/licenses/by-sa/4.0/">
        <cc:permits
           rdf:resource="http://creativecommons.org/ns#Reproduction" />
        <cc:permits
           rdf:resource="http://creativecommons.org/ns#Distribution" />
        <cc:requires
           rdf:resource="http://creativecommons.org/ns#Notice" />
        <cc:requires
           rdf:resource="http://creativecommons.org/ns#Attribution" />
        <cc:permits
           rdf:resource="http://creativecommons.org/ns#DerivativeWorks" />
        <cc:requires
           rdf:resource="http://creativecommons.org/ns#ShareAlike" />
      </cc:License>
    </rdf:RDF>
  </metadata>
  <g
     inkscape:label="Capa 1"
     inkscape:groupmode="layer"
     id="layer1"
     transform="translate(-46.260637,-84.516179)">
    <g
       id="g945"
       transform="matrix(2.0938248,0,0,2.0938248,-83.869444,-169.87238)">
      <path
         id="path907"
         transform="scale(0.26458333)"
         d="m 264.94141,459.24414 a 30,30 0 0 0 -29.99805,30 30,30 0 0 0 8.79883,21.20117 l -0.0156,0.0156 8.48438,8.48437 42.43164,42.42188 42.42578,-42.42578 -12.72852,-12.72657 -12.72656,12.72657 -16.9707,16.9707 -16.9707,-16.9707 -12.72657,12.72656 -12.72851,-12.72852 12.72851,-12.72851 -8.48437,-8.48438 0.004,-0.004 a 12,12 0 0 1 -3.52148,-8.48047 12,12 0 0 1 12,-12.00196 12,12 0 0 1 8.48242,3.52149 l 0.004,-0.004 8.48437,8.48438 12.72656,-12.72852 -8.48437,-8.48437 -0.0137,0.0156 A 30,30 0 0 0 264.9416,459.2439 Z"
         style="opacity:1;fill:#e8463d;fill-opacity:1;fill-rule:nonzero;stroke:none;stroke-width:86.47057343;stroke-linecap:square;stroke-linejoin:miter;stroke-miterlimit:4;stroke-dasharray:none;stroke-dashoffset:0;stroke-opacity:1;paint-order:stroke fill markers"
         inkscape:connector-curvature="0" />
      <path
         id="path903"
         transform="scale(0.26458333)"
         d="m 324.34375,459.24023 a 30,30 0 0 0 -21.20117,8.79883 l -0.0137,-0.0156 -8.48438,8.48633 -12.73047,12.73242 12.72852,12.72851 21.21289,-21.21289 0.006,0.004 a 12,12 0 0 1 8.48047,-3.51953 12,12 0 0 1 12.00195,12 12,12 0 0 1 -3.52148,8.48047 l 0.006,0.004 -8.48828,8.48828 12.72852,12.72657 0.002,-0.002 8.48633,-8.48437 -0.0137,-0.0156 a 30,30 0 0 0 8.79883,-21.19922 30,30 0 0 0 -29.99805,-30 z"
         style="opacity:1;fill:#4788f1;fill-opacity:1;fill-rule:nonzero;stroke:none;stroke-width:86.47057343;stroke-linecap:square;stroke-linejoin:miter;stroke-miterlimit:4;stroke-dasharray:none;stroke-dashoffset:0;stroke-opacity:1;paint-order:stroke fill markers"
         inkscape:connector-curvature="0" />
      <path
         transform="scale(0.26458333)"
         id="path924"
         d="m 324.33984,506.21484 -12.72461,12.72461 -16.9707,16.97071 -16.9707,-16.97071 -12.72852,12.72852 29.69922,29.69726 42.42383,-42.42382 z"
         style="opacity:1;fill:#3ba757;fill-opacity:1;fill-rule:nonzero;stroke:none;stroke-width:86.47057343;stroke-linecap:square;stroke-linejoin:miter;stroke-miterlimit:4;stroke-dasharray:none;stroke-dashoffset:0;stroke-opacity:1;paint-order:stroke fill markers"
         inkscape:connector-curvature="0" />
      <path
         id="path935"
         transform="scale(0.26458333)"
         d="m 281.91406,489.24219 -0.002,0.002 -29.69531,29.69531 12.72851,12.72852 12.72852,-12.72852 16.96875,-16.96875 z"
         style="opacity:1;fill:#f8ba2e;fill-opacity:1;fill-rule:nonzero;stroke:none;stroke-width:86.47057343;stroke-linecap:square;stroke-linejoin:miter;stroke-miterlimit:4;stroke-dasharray:none;stroke-dashoffset:0;stroke-opacity:1;paint-order:stroke fill markers"
         inkscape:connector-curvature="0" />
    </g>
  </g>
</svg>
